<mxfile host="app.diagrams.net" modified="2022-04-02T15:50:18.738Z" agent="5.0 (X11)" etag="AxZIAj_6coteMRNO4q0K" version="17.4.0" type="github">
  <diagram name="Page-1" id="90a13364-a465-7bf4-72fc-28e22215d7a0">
    <mxGraphModel dx="1990" dy="1153" grid="1" gridSize="10" guides="1" tooltips="1" connect="1" arrows="1" fold="1" page="1" pageScale="1.5" pageWidth="1169" pageHeight="826" background="none" math="0" shadow="0">
      <root>
        <mxCell id="0" style=";html=1;" />
        <mxCell id="1" style=";html=1;" parent="0" />
        <mxCell id="trmzSCSJxpemy-L-cy7g-25" value="" style="rounded=0;whiteSpace=wrap;html=1;shadow=0;fillColor=none;dashed=1;strokeWidth=2;connectable=0;allowArrows=0;container=1;dropTarget=1;recursiveResize=0;" parent="1" vertex="1">
          <mxGeometry x="400" y="960" width="940" height="380" as="geometry">
            <mxRectangle x="400" y="960" width="50" height="40" as="alternateBounds" />
          </mxGeometry>
        </mxCell>
        <mxCell id="qs7MlPvDUZvmC6Ha0CBg-1" style="edgeStyle=orthogonalEdgeStyle;rounded=0;orthogonalLoop=1;jettySize=auto;html=1;exitX=0.89;exitY=1;exitDx=0;exitDy=0;exitPerimeter=0;entryX=0.5;entryY=1;entryDx=0;entryDy=0;endArrow=none;endFill=0;" edge="1" parent="trmzSCSJxpemy-L-cy7g-25" source="trmzSCSJxpemy-L-cy7g-78" target="trmzSCSJxpemy-L-cy7g-95">
          <mxGeometry relative="1" as="geometry">
            <Array as="points">
              <mxPoint x="695" y="300" />
              <mxPoint x="840" y="300" />
            </Array>
          </mxGeometry>
        </mxCell>
        <mxCell id="trmzSCSJxpemy-L-cy7g-78" value="Network 1GBit switch" style="rounded=0;whiteSpace=wrap;html=1;shadow=1;points=[[0.11,1,0,0,0],[0.22,1,0,0,0],[0.25,0,0,0,0],[0.33,1,0,0,0],[0.44,1,0,0,0],[0.5,0,0,0,0],[0.56,1,0,0,0],[0.67,1,0,0,0],[0.75,0,0,0,0],[0.78,1,0,0,0],[0.89,1,0,0,0]];" parent="trmzSCSJxpemy-L-cy7g-25" vertex="1">
          <mxGeometry x="197" y="140" width="560" height="120" as="geometry" />
        </mxCell>
        <mxCell id="trmzSCSJxpemy-L-cy7g-83" style="edgeStyle=orthogonalEdgeStyle;rounded=0;orthogonalLoop=1;jettySize=auto;html=1;exitX=0.5;exitY=1;exitDx=0;exitDy=0;entryX=0.5;entryY=0;entryDx=0;entryDy=0;entryPerimeter=0;fontSize=12;" parent="trmzSCSJxpemy-L-cy7g-25" source="trmzSCSJxpemy-L-cy7g-80" target="trmzSCSJxpemy-L-cy7g-78" edge="1">
          <mxGeometry relative="1" as="geometry" />
        </mxCell>
        <mxCell id="trmzSCSJxpemy-L-cy7g-96" style="edgeStyle=orthogonalEdgeStyle;rounded=0;orthogonalLoop=1;jettySize=auto;html=1;exitX=0.5;exitY=1;exitDx=0;exitDy=0;fontSize=12;" parent="trmzSCSJxpemy-L-cy7g-25" source="trmzSCSJxpemy-L-cy7g-80" target="trmzSCSJxpemy-L-cy7g-95" edge="1">
          <mxGeometry relative="1" as="geometry">
            <Array as="points">
              <mxPoint x="620" y="110" />
              <mxPoint x="840" y="110" />
            </Array>
          </mxGeometry>
        </mxCell>
        <mxCell id="trmzSCSJxpemy-L-cy7g-80" value="DC/DC convert &lt;br&gt;from VBUS-Stack to 5V" style="rounded=0;whiteSpace=wrap;html=1;shadow=1;" parent="trmzSCSJxpemy-L-cy7g-25" vertex="1">
          <mxGeometry x="520" y="9.995384615384623" width="200" height="70.15384615384616" as="geometry" />
        </mxCell>
        <mxCell id="trmzSCSJxpemy-L-cy7g-95" value="Wifi router" style="rounded=0;whiteSpace=wrap;html=1;shadow=1;glass=0;fontSize=12;strokeColor=default;strokeWidth=1;fillColor=default;" parent="trmzSCSJxpemy-L-cy7g-25" vertex="1">
          <mxGeometry x="780" y="140" width="120" height="120" as="geometry" />
        </mxCell>
        <mxCell id="trmzSCSJxpemy-L-cy7g-24" value="drive stack" style="text;html=1;align=left;verticalAlign=middle;resizable=0;points=[];autosize=1;strokeColor=none;fillColor=none;fontStyle=1;fontSize=23;" parent="1" vertex="1">
          <mxGeometry x="400" y="220" width="140" height="30" as="geometry" />
        </mxCell>
        <mxCell id="trmzSCSJxpemy-L-cy7g-26" value="network stack" style="text;html=1;align=left;verticalAlign=middle;resizable=0;points=[];autosize=1;strokeColor=none;fillColor=none;fontStyle=1;fontSize=23;" parent="1" vertex="1">
          <mxGeometry x="400" y="930" width="170" height="30" as="geometry" />
        </mxCell>
        <mxCell id="trmzSCSJxpemy-L-cy7g-53" value="" style="group;container=1;" parent="1" vertex="1" connectable="0">
          <mxGeometry x="400" y="250" width="940" height="650" as="geometry" />
        </mxCell>
        <mxCell id="trmzSCSJxpemy-L-cy7g-23" value="" style="rounded=0;whiteSpace=wrap;html=1;shadow=0;fillColor=none;dashed=1;strokeWidth=2;connectable=0;allowArrows=0;container=1;recursiveResize=0;" parent="trmzSCSJxpemy-L-cy7g-53" vertex="1">
          <mxGeometry width="940" height="650" as="geometry">
            <mxRectangle width="50" height="40" as="alternateBounds" />
          </mxGeometry>
        </mxCell>
        <mxCell id="trmzSCSJxpemy-L-cy7g-54" value="Power push button with LED" style="rounded=1;whiteSpace=wrap;html=1;shadow=1;" parent="trmzSCSJxpemy-L-cy7g-23" vertex="1">
          <mxGeometry x="180" y="30" width="120" height="60" as="geometry" />
        </mxCell>
        <mxCell id="trmzSCSJxpemy-L-cy7g-55" style="edgeStyle=orthogonalEdgeStyle;rounded=0;orthogonalLoop=1;jettySize=auto;html=1;exitX=0.25;exitY=0;exitDx=0;exitDy=0;entryX=0.5;entryY=1;entryDx=0;entryDy=0;" parent="trmzSCSJxpemy-L-cy7g-23" source="trmzSCSJxpemy-L-cy7g-56" target="trmzSCSJxpemy-L-cy7g-54" edge="1">
          <mxGeometry relative="1" as="geometry" />
        </mxCell>
        <mxCell id="trmzSCSJxpemy-L-cy7g-56" value="Drive MCU&lt;br&gt;&lt;br&gt;Makerbase MKS GEN L 1.0&lt;br&gt;with&amp;nbsp;&lt;br&gt;4x Pololu DRV8825 Stepper Motor Driver" style="rounded=0;whiteSpace=wrap;html=1;shadow=1;" parent="trmzSCSJxpemy-L-cy7g-23" vertex="1">
          <mxGeometry x="190" y="180" width="200" height="240" as="geometry" />
        </mxCell>
        <mxCell id="trmzSCSJxpemy-L-cy7g-57" value="4x Stepper Motor" style="whiteSpace=wrap;html=1;aspect=fixed;shadow=1;" parent="trmzSCSJxpemy-L-cy7g-23" vertex="1">
          <mxGeometry x="40" y="200" width="80" height="80" as="geometry" />
        </mxCell>
        <mxCell id="trmzSCSJxpemy-L-cy7g-58" style="edgeStyle=orthogonalEdgeStyle;rounded=0;orthogonalLoop=1;jettySize=auto;html=1;exitX=0;exitY=0.25;exitDx=0;exitDy=0;" parent="trmzSCSJxpemy-L-cy7g-23" source="trmzSCSJxpemy-L-cy7g-56" target="trmzSCSJxpemy-L-cy7g-57" edge="1">
          <mxGeometry relative="1" as="geometry" />
        </mxCell>
        <mxCell id="trmzSCSJxpemy-L-cy7g-59" style="edgeStyle=orthogonalEdgeStyle;rounded=0;orthogonalLoop=1;jettySize=auto;html=1;exitX=0;exitY=0.5;exitDx=0;exitDy=0;entryX=1;entryY=0.5;entryDx=0;entryDy=0;" parent="trmzSCSJxpemy-L-cy7g-23" source="trmzSCSJxpemy-L-cy7g-60" target="trmzSCSJxpemy-L-cy7g-54" edge="1">
          <mxGeometry relative="1" as="geometry" />
        </mxCell>
        <mxCell id="trmzSCSJxpemy-L-cy7g-60" value="Main power cut off switch&lt;br&gt;aka panic switch" style="rounded=1;whiteSpace=wrap;html=1;shadow=1;" parent="trmzSCSJxpemy-L-cy7g-23" vertex="1">
          <mxGeometry x="570" y="30" width="120" height="60" as="geometry" />
        </mxCell>
        <mxCell id="trmzSCSJxpemy-L-cy7g-61" style="edgeStyle=orthogonalEdgeStyle;rounded=0;orthogonalLoop=1;jettySize=auto;html=1;exitX=0.5;exitY=0;exitDx=0;exitDy=0;entryX=1;entryY=0.5;entryDx=0;entryDy=0;" parent="trmzSCSJxpemy-L-cy7g-23" source="trmzSCSJxpemy-L-cy7g-63" target="trmzSCSJxpemy-L-cy7g-60" edge="1">
          <mxGeometry relative="1" as="geometry" />
        </mxCell>
        <mxCell id="trmzSCSJxpemy-L-cy7g-62" value="V-Bat" style="edgeLabel;html=1;align=center;verticalAlign=middle;resizable=0;points=[];" parent="trmzSCSJxpemy-L-cy7g-61" vertex="1" connectable="0">
          <mxGeometry x="-0.2267" relative="1" as="geometry">
            <mxPoint x="-34" as="offset" />
          </mxGeometry>
        </mxCell>
        <mxCell id="trmzSCSJxpemy-L-cy7g-63" value="Lead acid battery&lt;br&gt;2x 12V serial&amp;nbsp;" style="rounded=0;whiteSpace=wrap;html=1;shadow=1;" parent="trmzSCSJxpemy-L-cy7g-23" vertex="1">
          <mxGeometry x="730" y="110" width="120" height="60" as="geometry" />
        </mxCell>
        <mxCell id="trmzSCSJxpemy-L-cy7g-64" style="edgeStyle=orthogonalEdgeStyle;rounded=0;orthogonalLoop=1;jettySize=auto;html=1;exitX=0.5;exitY=1;exitDx=0;exitDy=0;fontSize=23;" parent="trmzSCSJxpemy-L-cy7g-23" source="trmzSCSJxpemy-L-cy7g-65" target="trmzSCSJxpemy-L-cy7g-56" edge="1">
          <mxGeometry relative="1" as="geometry">
            <mxPoint x="630" y="350" as="targetPoint" />
            <Array as="points">
              <mxPoint x="630" y="300" />
            </Array>
          </mxGeometry>
        </mxCell>
        <mxCell id="trmzSCSJxpemy-L-cy7g-65" value="MosFET" style="whiteSpace=wrap;html=1;aspect=fixed;shadow=1;" parent="trmzSCSJxpemy-L-cy7g-23" vertex="1">
          <mxGeometry x="590" y="200" width="80" height="80" as="geometry" />
        </mxCell>
        <mxCell id="trmzSCSJxpemy-L-cy7g-66" style="edgeStyle=orthogonalEdgeStyle;rounded=0;orthogonalLoop=1;jettySize=auto;html=1;entryX=0;entryY=0.5;entryDx=0;entryDy=0;exitX=0.75;exitY=1;exitDx=0;exitDy=0;" parent="trmzSCSJxpemy-L-cy7g-23" source="trmzSCSJxpemy-L-cy7g-54" target="trmzSCSJxpemy-L-cy7g-65" edge="1">
          <mxGeometry relative="1" as="geometry">
            <mxPoint x="-90" y="-140" as="sourcePoint" />
            <Array as="points">
              <mxPoint x="270" y="150" />
              <mxPoint x="490" y="150" />
              <mxPoint x="490" y="240" />
            </Array>
          </mxGeometry>
        </mxCell>
        <mxCell id="trmzSCSJxpemy-L-cy7g-67" style="edgeStyle=orthogonalEdgeStyle;rounded=0;orthogonalLoop=1;jettySize=auto;html=1;exitX=1;exitY=0.25;exitDx=0;exitDy=0;entryX=0;entryY=0.5;entryDx=0;entryDy=0;" parent="trmzSCSJxpemy-L-cy7g-23" source="trmzSCSJxpemy-L-cy7g-56" target="trmzSCSJxpemy-L-cy7g-65" edge="1">
          <mxGeometry relative="1" as="geometry" />
        </mxCell>
        <mxCell id="trmzSCSJxpemy-L-cy7g-68" style="edgeStyle=orthogonalEdgeStyle;rounded=0;orthogonalLoop=1;jettySize=auto;html=1;exitX=0.5;exitY=1;exitDx=0;exitDy=0;" parent="trmzSCSJxpemy-L-cy7g-23" source="trmzSCSJxpemy-L-cy7g-60" target="trmzSCSJxpemy-L-cy7g-65" edge="1">
          <mxGeometry relative="1" as="geometry" />
        </mxCell>
        <mxCell id="trmzSCSJxpemy-L-cy7g-69" value="VBat" style="edgeLabel;html=1;align=center;verticalAlign=middle;resizable=0;points=[];" parent="trmzSCSJxpemy-L-cy7g-68" vertex="1" connectable="0">
          <mxGeometry x="-0.2727" y="1" relative="1" as="geometry">
            <mxPoint as="offset" />
          </mxGeometry>
        </mxCell>
        <mxCell id="trmzSCSJxpemy-L-cy7g-70" style="edgeStyle=orthogonalEdgeStyle;rounded=0;orthogonalLoop=1;jettySize=auto;html=1;exitX=0.5;exitY=0;exitDx=0;exitDy=0;" parent="trmzSCSJxpemy-L-cy7g-23" source="trmzSCSJxpemy-L-cy7g-71" target="trmzSCSJxpemy-L-cy7g-56" edge="1">
          <mxGeometry relative="1" as="geometry">
            <Array as="points">
              <mxPoint x="290" y="490" />
              <mxPoint x="290" y="490" />
            </Array>
          </mxGeometry>
        </mxCell>
        <mxCell id="trmzSCSJxpemy-L-cy7g-71" value="Drive control / Raspberry Pi" style="rounded=0;whiteSpace=wrap;html=1;shadow=1;" parent="trmzSCSJxpemy-L-cy7g-23" vertex="1">
          <mxGeometry x="190" y="510" width="200" height="120" as="geometry" />
        </mxCell>
        <mxCell id="trmzSCSJxpemy-L-cy7g-73" value="power boostraping &lt;br&gt;with push button.&lt;br&gt;Keep power on by drive MCU" style="text;html=1;align=center;verticalAlign=middle;resizable=0;points=[];autosize=1;strokeColor=none;fillColor=none;" parent="trmzSCSJxpemy-L-cy7g-23" vertex="1">
          <mxGeometry x="410" y="240" width="170" height="50" as="geometry" />
        </mxCell>
        <mxCell id="trmzSCSJxpemy-L-cy7g-74" style="edgeStyle=orthogonalEdgeStyle;rounded=0;orthogonalLoop=1;jettySize=auto;html=1;exitX=1;exitY=0.5;exitDx=0;exitDy=0;entryX=0.25;entryY=1;entryDx=0;entryDy=0;" parent="trmzSCSJxpemy-L-cy7g-23" source="trmzSCSJxpemy-L-cy7g-75" target="trmzSCSJxpemy-L-cy7g-56" edge="1">
          <mxGeometry relative="1" as="geometry" />
        </mxCell>
        <mxCell id="trmzSCSJxpemy-L-cy7g-75" value="DTR toggle switch&lt;br&gt;for enabling programming mode" style="rounded=1;whiteSpace=wrap;html=1;shadow=1;" parent="trmzSCSJxpemy-L-cy7g-23" vertex="1">
          <mxGeometry x="40" y="430" width="120" height="60" as="geometry" />
        </mxCell>
        <mxCell id="X_bJVh7z9mSjw5fobOmi-4" style="edgeStyle=orthogonalEdgeStyle;rounded=0;orthogonalLoop=1;jettySize=auto;html=1;exitX=0;exitY=0.5;exitDx=0;exitDy=0;entryX=1;entryY=0.25;entryDx=0;entryDy=0;" parent="trmzSCSJxpemy-L-cy7g-23" source="X_bJVh7z9mSjw5fobOmi-3" target="trmzSCSJxpemy-L-cy7g-71" edge="1">
          <mxGeometry relative="1" as="geometry" />
        </mxCell>
        <mxCell id="X_bJVh7z9mSjw5fobOmi-3" value="DC/DC convert &lt;br&gt;&lt;div&gt;MCU FET out &lt;br&gt;&lt;/div&gt;&lt;div&gt;to 5V&lt;/div&gt;" style="rounded=0;whiteSpace=wrap;html=1;shadow=1;" parent="trmzSCSJxpemy-L-cy7g-23" vertex="1">
          <mxGeometry x="460" y="510" width="120" height="60" as="geometry" />
        </mxCell>
        <mxCell id="X_bJVh7z9mSjw5fobOmi-2" style="edgeStyle=orthogonalEdgeStyle;rounded=0;orthogonalLoop=1;jettySize=auto;html=1;exitX=0.75;exitY=1;exitDx=0;exitDy=0;entryX=0.45;entryY=0.029;entryDx=0;entryDy=0;entryPerimeter=0;" parent="trmzSCSJxpemy-L-cy7g-23" source="trmzSCSJxpemy-L-cy7g-56" target="X_bJVh7z9mSjw5fobOmi-3" edge="1">
          <mxGeometry relative="1" as="geometry">
            <mxPoint x="520" y="490" as="targetPoint" />
            <Array as="points">
              <mxPoint x="340" y="440" />
              <mxPoint x="514" y="440" />
            </Array>
          </mxGeometry>
        </mxCell>
        <mxCell id="X_bJVh7z9mSjw5fobOmi-6" value="&lt;div&gt;VBUS-Stacks&lt;/div&gt;&lt;div&gt;switched by MCU FET&lt;br&gt;&lt;/div&gt;" style="text;html=1;align=center;verticalAlign=middle;resizable=0;points=[];autosize=1;strokeColor=none;fillColor=none;" parent="trmzSCSJxpemy-L-cy7g-23" vertex="1">
          <mxGeometry x="425" y="370" width="130" height="30" as="geometry" />
        </mxCell>
        <mxCell id="X_bJVh7z9mSjw5fobOmi-7" value="&lt;div&gt;switched by MCU FET&lt;br&gt;&lt;/div&gt;" style="text;html=1;align=center;verticalAlign=middle;resizable=0;points=[];autosize=1;strokeColor=none;fillColor=none;" parent="trmzSCSJxpemy-L-cy7g-23" vertex="1">
          <mxGeometry x="365" y="445" width="130" height="20" as="geometry" />
        </mxCell>
        <mxCell id="trmzSCSJxpemy-L-cy7g-72" value="Serial via USB&amp;nbsp;" style="text;html=1;align=center;verticalAlign=middle;resizable=0;points=[];autosize=1;strokeColor=none;fillColor=none;" parent="trmzSCSJxpemy-L-cy7g-53" vertex="1">
          <mxGeometry x="190" y="480" width="100" height="20" as="geometry" />
        </mxCell>
        <mxCell id="trmzSCSJxpemy-L-cy7g-84" value="" style="rounded=0;whiteSpace=wrap;html=1;shadow=0;fillColor=none;dashed=1;strokeWidth=2;connectable=0;allowArrows=0;container=1;dropTarget=1;recursiveResize=0;" parent="1" vertex="1">
          <mxGeometry x="400" y="1400" width="940" height="380" as="geometry">
            <mxRectangle x="400" y="960" width="50" height="40" as="alternateBounds" />
          </mxGeometry>
        </mxCell>
        <mxCell id="trmzSCSJxpemy-L-cy7g-86" style="edgeStyle=orthogonalEdgeStyle;rounded=0;orthogonalLoop=1;jettySize=auto;html=1;exitX=0.5;exitY=1;exitDx=0;exitDy=0;entryX=1;entryY=0.25;entryDx=0;entryDy=0;fontSize=12;" parent="trmzSCSJxpemy-L-cy7g-84" source="trmzSCSJxpemy-L-cy7g-87" target="trmzSCSJxpemy-L-cy7g-89" edge="1">
          <mxGeometry relative="1" as="geometry">
            <mxPoint x="700" y="120" as="targetPoint" />
          </mxGeometry>
        </mxCell>
        <mxCell id="trmzSCSJxpemy-L-cy7g-87" value="DC/DC convert &lt;br&gt;from VBUS-Stack to 5V" style="rounded=0;whiteSpace=wrap;html=1;shadow=1;" parent="trmzSCSJxpemy-L-cy7g-84" vertex="1">
          <mxGeometry x="600" y="19.995384615384623" width="200" height="70.15384615384616" as="geometry" />
        </mxCell>
        <mxCell id="trmzSCSJxpemy-L-cy7g-89" value="Drive control / Raspberry Pi" style="rounded=0;whiteSpace=wrap;html=1;shadow=1;" parent="trmzSCSJxpemy-L-cy7g-84" vertex="1">
          <mxGeometry x="120" y="80" width="200" height="120" as="geometry" />
        </mxCell>
        <mxCell id="trmzSCSJxpemy-L-cy7g-93" style="edgeStyle=orthogonalEdgeStyle;rounded=0;orthogonalLoop=1;jettySize=auto;html=1;exitX=0.5;exitY=0;exitDx=0;exitDy=0;entryX=0.25;entryY=1;entryDx=0;entryDy=0;fontSize=12;" parent="trmzSCSJxpemy-L-cy7g-84" source="trmzSCSJxpemy-L-cy7g-92" target="trmzSCSJxpemy-L-cy7g-89" edge="1">
          <mxGeometry relative="1" as="geometry" />
        </mxCell>
        <mxCell id="trmzSCSJxpemy-L-cy7g-92" value="Raspi Cam" style="rounded=0;whiteSpace=wrap;html=1;shadow=1;fontSize=12;strokeWidth=1;fillColor=default;strokeColor=default;glass=0;" parent="trmzSCSJxpemy-L-cy7g-84" vertex="1">
          <mxGeometry x="120" y="240" width="100" height="60" as="geometry" />
        </mxCell>
        <mxCell id="trmzSCSJxpemy-L-cy7g-88" value="sensor stack" style="text;html=1;align=left;verticalAlign=middle;resizable=0;points=[];autosize=1;strokeColor=none;fillColor=none;fontStyle=1;fontSize=23;" parent="1" vertex="1">
          <mxGeometry x="400" y="1370" width="160" height="30" as="geometry" />
        </mxCell>
        <mxCell id="trmzSCSJxpemy-L-cy7g-90" style="edgeStyle=orthogonalEdgeStyle;rounded=0;orthogonalLoop=1;jettySize=auto;html=1;exitX=0.22;exitY=1;exitDx=0;exitDy=0;exitPerimeter=0;entryX=0.75;entryY=0;entryDx=0;entryDy=0;fontSize=12;endArrow=none;endFill=0;" parent="1" source="trmzSCSJxpemy-L-cy7g-78" target="trmzSCSJxpemy-L-cy7g-89" edge="1">
          <mxGeometry relative="1" as="geometry">
            <Array as="points">
              <mxPoint x="723" y="1440" />
              <mxPoint x="670" y="1440" />
            </Array>
          </mxGeometry>
        </mxCell>
        <mxCell id="trmzSCSJxpemy-L-cy7g-97" style="edgeStyle=orthogonalEdgeStyle;rounded=0;orthogonalLoop=1;jettySize=auto;html=1;exitX=0.25;exitY=1;exitDx=0;exitDy=0;entryX=0.11;entryY=1;entryDx=0;entryDy=0;entryPerimeter=0;fontSize=12;endArrow=none;endFill=0;" parent="1" source="trmzSCSJxpemy-L-cy7g-71" target="trmzSCSJxpemy-L-cy7g-78" edge="1">
          <mxGeometry relative="1" as="geometry">
            <Array as="points">
              <mxPoint x="640" y="990" />
              <mxPoint x="577" y="990" />
              <mxPoint x="577" y="1260" />
              <mxPoint x="659" y="1260" />
            </Array>
          </mxGeometry>
        </mxCell>
        <mxCell id="X_bJVh7z9mSjw5fobOmi-5" style="edgeStyle=orthogonalEdgeStyle;rounded=0;orthogonalLoop=1;jettySize=auto;html=1;exitX=1;exitY=0.75;exitDx=0;exitDy=0;" parent="1" source="trmzSCSJxpemy-L-cy7g-56" edge="1">
          <mxGeometry relative="1" as="geometry">
            <mxPoint x="960" y="610" as="targetPoint" />
          </mxGeometry>
        </mxCell>
      </root>
    </mxGraphModel>
  </diagram>
</mxfile>
